uphill_walking_calibrated_grf.mot
version=1
nRows=14
nColumns=37
inDegrees=yes
endheader
time	ground_force1_vx	ground_force1_vy	ground_force1_vz	ground_force1_px	ground_force1_py	ground_force1_pz	ground_torque1_x	ground_torque1_y	ground_torque1_z	ground_force2_vx	ground_force2_vy	ground_force2_vz	ground_force2_px	ground_force2_py	ground_force2_pz	ground_torque2_x	ground_torque2_y	ground_torque2_z	femur_assistance_force_vx	femur_assistance_force_vy	femur_assistance_force_vz	femur_assistance_force_px	femur_assistance_force_py	femur_assistance_force_pz	femur_assistance_torque_x	femur_assistance_torque_y	femur_assistance_torque_z	tibia_assistance_force_vx	tibia_assistance_force_vy	tibia_assistance_force_vz	tibia_assistance_force_px	tibia_assistance_force_py	tibia_assistance_force_pz	tibia_assistance_torque_x	tibia_assistance_torque_y	tibia_assistance_torque_z
     29.77000000	    106.54440300	    458.65536500	     26.29310000	      0.73865600	      0.00000000	     -0.64825300	      0.00000000	     -7.02995500	      0.00002300	      0.00000000	      0.00000000	      0.00000000	      0.88900000	      0.00000000	     -0.27900000	      0.00000000	      0.00000000	      0.00000000	      0.00000000	      0.00000000	      0.00000000	     -0.10000000	     -0.09600000	      0.00000000	      0.00000000	      0.00000000	      0.00000000	      0.00000000	     -0.00000000	      0.00000000	     -0.08000000	     -0.29239640	      0.00000000	      0.00000000	      0.00000000	      0.00000000
     29.77100000	    106.31552100	    456.36654700	     27.13233400	      0.73861500	      0.00000000	     -0.64829900	      0.00002300	     -5.44206500	      0.00002000	      0.00000000	      0.00000000	      0.00000000	      0.88900000	      0.00000000	     -0.27900000	      0.00000000	      0.00000000	      0.00000000	      0.00000000	      0.00000000	      0.00000000	     -0.10000000	     -0.09600000	      0.00000000	      0.00000000	      0.00000000	      0.00000000	      0.00000000	     -0.00000000	      0.00000000	     -0.08000000	     -0.29242261	      0.00000000	      0.00000000	      0.00000000	      0.00000000
     29.77200000	    104.94223000	    453.46737700	     28.88709400	      0.73580000	      0.00000000	     -0.64757700	      0.00001300	     -3.93178100	      0.00001400	      0.00000000	      0.00000000	      0.00000000	      0.88900000	      0.00000000	     -0.27900000	      0.00000000	      0.00000000	      0.00000000	      0.00000000	      0.00000000	      0.00000000	     -0.10000000	     -0.09600000	      0.00000000	      0.00000000	      0.00000000	      0.00000000	      0.00000000	     -0.00000000	      0.00000000	     -0.08000000	     -0.29244883	      0.00000000	      0.00000000	      0.00000000	      0.00000000
     29.77300000	    103.64523300	    448.88974000	     30.03150400	      0.73405800	      0.00000000	     -0.64562300	      0.00003000	     -2.56719400	      0.00002000	      0.00000000	      0.00000000	      0.00000000	      0.88900000	      0.00000000	     -0.27900000	      0.00000000	      0.00000000	      0.00000000	      0.00000000	      0.00000000	      0.00000000	     -0.10000000	     -0.09600000	      0.00000000	      0.00000000	      0.00000000	      0.00000000	      0.00000000	     -0.00000000	      0.00000000	     -0.08000000	     -0.29247504	      0.00000000	      0.00000000	      0.00000000	      0.00000000
     29.77400000	    103.72152700	    444.61727900	     30.48926700	      0.73122800	      0.00000000	     -0.64560200	      0.00001400	     -1.98522300	      0.00001100	      0.00000000	      0.00000000	      0.00000000	      0.88900000	      0.00000000	     -0.27900000	      0.00000000	      0.00000000	      0.00000000	      0.00000000	      0.00000000	      0.00000000	     -0.10000000	     -0.09600000	      0.00000000	      0.00000000	      0.00000000	      0.00000000	      0.00000000	     -0.00000000	      0.00000000	     -0.08000000	     -0.29250126	      0.00000000	      0.00000000	      0.00000000	      0.00000000
     29.77500000	    104.63705400	    439.73446700	     30.48926700	      0.73046400	      0.00000000	     -0.64506300	      0.00002700	     -1.22780000	      0.00001600	      0.00000000	      0.00000000	      0.00000000	      0.88900000	      0.00000000	     -0.27900000	      0.00000000	      0.00000000	      0.00000000	      0.00000000	      0.00000000	      0.00000000	     -0.10000000	     -0.09600000	      0.00000000	      0.00000000	      0.00000000	      0.00000000	      0.00000000	     -0.00000000	      0.00000000	     -0.08000000	     -0.29252748	      0.00000000	      0.00000000	      0.00000000	      0.00000000
     29.77600000	    105.39999400	    436.83529700	     31.17591300	      0.72637000	      0.00000000	     -0.64554900	      0.00001300	     -1.10814000	      0.00000500	      0.00000000	      0.00000000	      0.00000000	      0.88900000	      0.00000000	     -0.27900000	      0.00000000	      0.00000000	      0.00000000	      0.00000000	      0.00000000	      0.00000000	     -0.10000000	     -0.09600000	      0.00000000	      0.00000000	      0.00000000	      0.00000000	      0.00000000	     -0.00000000	      0.00000000	     -0.08000000	     -0.29255369	      0.00000000	      0.00000000	      0.00000000	      0.00000000
     29.77700000	    105.24740600	    433.17318700	     31.93885200	      0.72377500	      0.00000000	     -0.64520900	      0.00003100	      0.27623300	      0.00000000	      0.00000000	      0.00000000	      0.00000000	      0.88900000	      0.00000000	     -0.27900000	      0.00000000	      0.00000000	      0.00000000	      0.00000000	      0.00000000	      0.00000000	     -0.10000000	     -0.09600000	      0.00000000	      0.00000000	      0.00000000	      0.00000000	      0.00000000	     -0.00000000	      0.00000000	     -0.08000000	     -0.29257991	      0.00000000	      0.00000000	      0.00000000	      0.00000000
     29.77800000	    104.25558500	    429.35849000	     33.23584700	      0.72338200	      0.00000000	     -0.64412500	      0.00002700	      1.61795800	      0.00001600	      0.00000000	      0.00000000	      0.00000000	      0.88900000	      0.00000000	     -0.27900000	      0.00000000	      0.00000000	      0.00000000	      0.00000000	      0.00000000	      0.00000000	     -0.10000000	     -0.09600000	      0.00000000	      0.00000000	      0.00000000	      0.00000000	      0.00000000	     -0.00000000	      0.00000000	     -0.08000000	     -0.29257158	      0.00000000	      0.00000000	      0.00000000	      0.00000000
     29.77900000	    104.40817300	    425.69638100	     34.99060800	      0.72358300	      0.00000000	     -0.64319200	      0.00000700	      3.68522400	      0.00001400	      0.00000000	      0.00000000	      0.00000000	      0.88900000	      0.00000000	     -0.27900000	      0.00000000	      0.00000000	      0.00000000	      0.00000000	      0.00000000	      0.00000000	     -0.10000000	     -0.09600000	      0.00000000	      0.00000000	      0.00000000	      0.00000000	      0.00000000	     -0.00000000	      0.00000000	     -0.08000000	     -0.29255274	      0.00000000	      0.00000000	      0.00000000	      0.00000000
     29.78000000	    105.78146400	    422.33944700	     36.36389900	      0.72413200	      0.00000000	     -0.64316700	     -0.00000100	      5.76939200	      0.00002200	      0.00000000	      0.00000000	      0.00000000	      0.88900000	      0.00000000	     -0.27900000	      0.00000000	      0.00000000	      0.00000000	      0.00000000	      0.00000000	      0.00000000	     -0.10000000	     -0.09600000	      0.00000000	      0.00000000	      0.00000000	      0.00000000	      0.00000000	     -0.00000000	      0.00000000	     -0.08000000	     -0.29253389	      0.00000000	      0.00000000	      0.00000000	      0.00000000
     29.78100000	    107.84140000	    419.13510100	     38.04236600	      0.72704700	      0.00000000	     -0.64273100	      0.00001000	      7.24058900	      0.00002000	      0.00000000	      0.00000000	      0.00000000	      0.88900000	      0.00000000	     -0.27900000	      0.00000000	      0.00000000	      0.00000000	      0.00000000	      0.00000000	      0.00000000	     -0.10000000	     -0.09600000	      0.00000000	      0.00000000	      0.00000000	      0.00000000	      0.00000000	     -0.00000000	      0.00000000	     -0.08000000	     -0.29251505	      0.00000000	      0.00000000	      0.00000000	      0.00000000
     29.78200000	    109.51986700	    417.60922200	     39.03418700	      0.72853400	      0.00000000	     -0.64449800	     -0.00000600	      8.53247400	      0.00001500	      0.00000000	      0.00000000	      0.00000000	      0.88900000	      0.00000000	     -0.27900000	      0.00000000	      0.00000000	      0.00000000	      0.00000000	      0.00000000	      0.00000000	     -0.10000000	     -0.09600000	      0.00000000	      0.00000000	      0.00000000	      0.00000000	      0.00000000	     -0.00000000	      0.00000000	     -0.08000000	     -0.29249621	      0.00000000	      0.00000000	      0.00000000	      0.00000000
     29.78300000	    109.74874900	    416.54110700	     39.56824500	      0.72923000	      0.00000000	     -0.64562500	      0.00003400	      8.89423700	     -0.00000500	      0.00000000	      0.00000000	      0.00000000	      0.88900000	      0.00000000	     -0.27900000	      0.00000000	      0.00000000	      0.00000000	      0.00000000	      0.00000000	      0.00000000	     -0.10000000	     -0.09600000	      0.00000000	      0.00000000	      0.00000000	      0.00000000	      0.00000000	     -0.00000000	      0.00000000	     -0.08000000	     -0.29247736	      0.00000000	      0.00000000	      0.00000000	      0.00000000
